# xmcd
#
# Track frame offsets:
#	150
#	25575
#	44790
#	63620
#	86205
#	123640
#	140330
#	161260
#	190057
#	213127
#
# Disc length: 3160 seconds
#
# Revision: 0
# Processed by: cddbd v1.5.2PL0 Copyright (c) Steve Scherf et al.
# Submitted via: EasyCDDAExtractor 16.0.9.1
#
DISCID=8b0c560a
DTITLE=Mạnh Đình - AsiaCD086: Chuyện Giàn Thiên Lý 2
DYEAR=1996
DGENRE=Country
TTITLE0=Mạnh Đình - Chuyện Giàn Thiên Lý 2 (Nhạc: Anh Bằng, Thơ: Yên Thao)
TTITLE1=Mạnh Đình - Qua Ngõ Nhà Em (Anh Bằng)
TTITLE2=Mạnh Đình and Như Quỳnh - Còn Yêu Trọn Đời (Anh Bằng)
TTITLE3=Mạnh Đình - Người Ở Lại Buồn (Nhạc: Anh Bằng, Thơ: Ngô Xuân Hậu)
TTITLE4=Mạnh Đình, Phương Hồng Quế, Duy Khánh, Thanh Thúy and Tam Ca - Liên Khúc
TTITLE4=Trúc Phương
TTITLE5=Mạnh Đình - Em Đã Quên Đường Khuya (Dzoãn Bình)
TTITLE6=Mạnh Đình - Bướm Trắng (Nhạc: Anh Bằng, Thơ: Nguyễn Bính)
TTITLE7=Mạnh Đình and Thanh Tuyền - Hàn Mặc Tử (Trần Thiện Thanh)
TTITLE8=Mạnh Đình - Cô Bé Môi Hồng (Anh Bằng)
TTITLE9=Mạnh Đình - Bỏ Phố Đà Lạt (Nhạc: Anh Bằng - Lê Văn Thiện, Thơ: Hoàng N
TTITLE9=gọc Ẩn)
EXTD=
EXTT0=
EXTT1=
EXTT2=
EXTT3=
EXTT4=
EXTT5=
EXTT6=
EXTT7=
EXTT8=
EXTT9=
PLAYORDER=
